<?xml version="1.0" encoding="utf-8"?>
<!-- Generator: Adobe Illustrator 19.0.0, SVG Export Plug-In . SVG Version: 6.00 Build 0)  -->
<svg version="1.0" id="Capa_1" xmlns="http://www.w3.org/2000/svg" xmlns:xlink="http://www.w3.org/1999/xlink" x="0px" y="0px"
	 viewBox="0 0 179 73" style="enable-background:new 0 0 179 73;" xml:space="preserve">
<style type="text/css">
	.st0{fill:#4CA289;}
	.st1{fill:#3D8C77;}
</style>
<g id="XMLID_8_">
	<g id="XMLID_224_">
		<path id="XMLID_235_" class="st0" d="M9.7,61.1c-0.4,0.3-0.8,0.6-1.3,0.9c-0.5,0.3-1,0.5-1.5,0.5c-0.7,0.2-1.5,0.2-2.2,0.2
			c-0.7,0-1.4,0-2.2,0c-0.8,0-1.5-0.3-2-0.9c-0.5-0.6-0.7-1.3-0.6-2.3c0.3-3.5,0.7-6.9,1-10.3c0.4-3.4,0.7-6.8,1-10.3
			c0.2-2.2,0.4-4.3,0.5-6.3c0.1-1.9,0.3-4,0.4-6.3C3,26,3.1,25.5,3.1,25c0-0.5,0.1-1,0.1-1.5c0.1-1.3,0.5-2.2,1.1-2.8
			s1.4-0.8,2.6-0.7c1.4,0.1,2.7,0.2,3.9,0.4c1.2,0.2,2.3,0.5,3.3,1c1,0.5,1.8,1.2,2.6,2.1c0.7,0.9,1.3,2.2,1.8,3.8
			c0.8,2.7,1.3,5.7,1.3,8.9c0,3.2-0.4,6.3-1.1,9.4c-0.8,3.1-1.9,6-3.4,8.7C13.8,57,11.9,59.3,9.7,61.1z M4.8,59.9
			c1.8-0.6,3.4-1.5,4.9-2.8c1.4-1.3,2.7-2.7,3.7-4.4c1-1.7,1.9-3.5,2.5-5.5c0.7-2,1.1-4,1.4-6.1c0.3-2.1,0.3-4.1,0.2-6.1
			c-0.1-2-0.5-3.9-1-5.7c-0.5-1.6-1-2.9-1.6-3.7c-0.6-0.8-1.2-1.4-2-1.7c-0.7-0.3-1.5-0.5-2.3-0.5c-0.8,0-1.7,0-2.5-0.1
			c-0.2,3.2-0.4,6.3-0.7,9.3c-0.3,3-0.6,6-0.9,9c-0.3,3-0.7,6-1,9C5.2,53.5,5,56.7,4.8,59.9z"/>
		<path id="XMLID_231_" class="st0" d="M23.9,36.5c0.4-0.1,0.8,0,1.2,0.1c0.4,0.2,0.6,0.5,0.6,0.9c0,1.7,0,3.6,0,5.6
			c0,2.1,0,4.2-0.1,6.4c0,2.2-0.1,4.3-0.2,6.4c-0.1,2.1-0.2,4-0.4,5.7c-0.2,0.7-0.4,1.2-0.8,1.3c-0.3,0.2-0.8,0.2-1.4,0.1
			c-0.5-0.1-0.9-0.3-1.3-0.8c-0.4-0.4-0.5-1.1-0.4-1.9c0.1-1.6,0.2-3.4,0.4-5.3c0.1-1.9,0.3-3.9,0.4-5.9c0.1-2,0.3-4,0.4-5.9
			c0.1-2,0.3-3.8,0.5-5.5c0.1-0.6,0.2-0.9,0.4-1C23.2,36.8,23.5,36.7,23.9,36.5z M26.7,31.8c0,0.4,0,0.7-0.2,1
			c-0.1,0.2-0.3,0.4-0.6,0.6c-0.2,0.2-0.5,0.3-0.7,0.3c-0.3,0-0.4,0-0.6,0c-0.4-0.1-0.8-0.3-1.3-0.6c-0.5-0.3-0.8-0.7-0.9-1
			c-0.2-0.7-0.1-1.1,0.4-1.3c0.5-0.2,0.9-0.3,1.4-0.3c0.1,0,0.4,0,0.6,0c0.3,0,0.6,0.1,0.8,0.2c0.3,0.1,0.5,0.2,0.7,0.4
			C26.5,31.2,26.6,31.5,26.7,31.8z"/>
		<path id="XMLID_228_" class="st0" d="M32,51.8c-0.2,0.6-0.3,1.3-0.4,2.1c-0.1,0.9-0.2,1.8-0.1,2.7c0,0.9,0.1,1.7,0.3,2.4
			c0.2,0.7,0.5,1.2,0.9,1.4c0.5,0.3,1,0.5,1.6,0.4c0.6,0,1.1-0.2,1.6-0.4c0.5-0.3,0.9-0.6,1.3-1c0.4-0.4,0.7-0.8,0.9-1.1
			c0.1-0.3,0.3-0.5,0.6-0.6c0.2-0.1,0.4-0.1,0.6,0c0.2,0.2,0.3,0.4,0.2,0.7c-0.1,0.3-0.2,0.6-0.2,0.7c-0.1,0.4-0.4,0.8-0.8,1.2
			c-0.4,0.5-0.8,0.9-1.4,1.3c-0.6,0.4-1.3,0.8-2,1C33.9,63,33,63.2,32,63.2c-1.2,0-2.2-0.4-2.9-1.2c-0.7-0.8-1.2-1.8-1.6-3.1
			c-0.3-1.3-0.5-2.7-0.4-4.4c0.1-1.6,0.3-3.3,0.7-4.9c0.4-1.7,0.9-3.2,1.6-4.8c0.7-1.5,1.5-2.9,2.4-4c0.9-1.2,1.9-2,3-2.6
			c1.1-0.6,2.3-0.8,3.5-0.5c1.5,0.3,2.6,1,3.2,2.1c0.6,1.1,1,2.4,0.9,3.8c0,1.4-0.4,2.9-1,4.3c-0.6,1.4-1.4,2.6-2.4,3.6
			c-1,1-2.1,1.5-3.4,1.7C34.6,53.4,33.3,52.9,32,51.8z M38.3,40.4c-0.7,0-1.4,0.3-2,1c-0.6,0.7-1.2,1.6-1.7,2.7
			c-0.5,1.1-1,2.1-1.3,3.2c-0.4,1.1-0.6,1.9-0.8,2.4c1,1,2,1.4,2.9,1.3c0.9-0.1,1.7-0.4,2.4-1.1c0.7-0.7,1.2-1.5,1.6-2.6
			c0.4-1.1,0.7-2.1,0.7-3.1c0.1-1,0-1.9-0.3-2.7C39.5,40.8,39,40.4,38.3,40.4z"/>
		<path id="XMLID_225_" class="st0" d="M55.5,54.7c0.3,0,0.4,0.4,0.2,1.3c-0.2,0.9-0.6,1.8-1.1,2.9c-0.6,1.1-1.2,2-2,2.9
			c-0.8,0.9-1.7,1.3-2.5,1.3c-1.7,0-2.8-0.6-3.5-1.9c-0.7-1.3-1-2.9-0.9-4.8c0.2-2.8,0.4-5.7,0.7-8.6c0.3-3,0.5-5.9,0.7-8.7
			c-0.3,0-0.6,0-0.9,0c-0.3,0-0.7,0-1,0c-0.3,0-0.6-0.1-0.8-0.2c-0.2-0.1-0.4-0.3-0.4-0.6c0-0.8,0.2-1.3,0.9-1.5
			c0.6-0.2,1.4-0.3,2.5-0.2c0.1-1.9,0.3-3.9,0.5-6.1c0.2-2.1,0.4-4.2,0.6-6.1c0-0.5,0.1-0.8,0.3-1.1c0.1-0.3,0.3-0.4,0.5-0.6
			c0.2-0.1,0.4-0.2,0.6-0.2c0.2,0,0.3-0.1,0.4-0.1c0.2,0,0.4,0,0.7,0c0.3,0,0.5,0.1,0.7,0.2c0.2,0.1,0.4,0.3,0.5,0.5
			c0.1,0.2,0.2,0.6,0.2,1c-0.2,1.8-0.3,3.9-0.5,6.1c-0.1,2.2-0.3,4.3-0.5,6.1c0.4,0,0.9,0,1.4,0c0.5,0,1,0.1,1.5,0.1
			c0.5,0.1,0.9,0.2,1.2,0.4c0.3,0.2,0.4,0.4,0.4,0.8c0,0.4-0.2,0.7-0.5,0.8c-0.3,0.1-0.7,0.2-1.2,0.2c-0.5,0-1,0-1.5,0
			c-0.5,0-1,0-1.5,0.1c-0.3,2.7-0.6,5.4-0.8,8.2c-0.3,2.8-0.5,5.6-0.7,8.3c0,0.3,0,0.7,0,1.2c0,0.5,0,1,0.1,1.5
			c0.1,0.5,0.2,1,0.4,1.3c0.2,0.4,0.4,0.5,0.8,0.5c0.6,0,1.2-0.3,1.6-0.8c0.4-0.5,0.8-1.1,1.2-1.8c0.4-0.6,0.7-1.2,1-1.8
			C54.8,55,55.1,54.7,55.5,54.7z"/>
	</g>
	<g id="XMLID_148_">
		<path id="XMLID_219_" class="st0" d="M98.1,31c-0.3,0.1-0.6,0.1-0.8,0c-0.3-0.2-0.4-0.4-0.6-0.7c-0.4-1-0.8-1.7-1.4-2.2
			c-0.6-0.5-1.2-0.7-1.7-0.6c-0.5,0.1-1,0.5-1.3,1.3c-0.3,0.7-0.4,1.8-0.2,3.3c0.2,1.6,0.6,3.1,1.1,4.5c0.5,1.4,1.1,2.8,1.8,4.2
			c0.6,1.4,1.3,2.7,2,4.1c0.7,1.3,1.2,2.7,1.7,4.1c0.5,1.4,0.8,2.9,1,4.5c0.2,1.6,0.2,3.2-0.1,5c-0.2,1.1-0.5,1.9-1,2.6
			c-0.5,0.7-1.1,1.1-1.8,1.5c-0.7,0.3-1.4,0.6-2.1,0.6c-0.7,0.1-1.4,0.1-2,0c-1.6-0.2-2.8-1-3.6-2.1c-0.8-1.2-1.1-2.8-0.8-4.7
			c0.1-0.4,0.2-0.8,0.4-1c0.2-0.2,0.4-0.3,0.6-0.3c0.2,0,0.4,0.1,0.5,0.4c0.2,0.2,0.2,0.5,0.2,1c0,0.7,0.1,1.3,0.3,2
			c0.1,0.7,0.4,1.3,0.7,1.8c0.3,0.5,0.7,0.9,1.2,1.2c0.5,0.3,1.2,0.3,2,0.1c0.6-0.2,1.1-0.5,1.5-1.1c0.4-0.6,0.6-1.3,0.7-2.1
			c0.1-1.5,0-3.1-0.4-4.6s-0.9-3.1-1.5-4.6c-0.6-1.5-1.3-3.1-2-4.7c-0.7-1.6-1.4-3.1-2-4.7c-0.6-1.6-1-3.2-1.4-4.8
			c-0.3-1.6-0.4-3.2-0.2-4.9c0.1-1.2,0.5-2.2,1.3-2.8c0.7-0.7,1.6-1.1,2.7-1.2c1.3-0.2,2.4,0,3.3,0.6c0.8,0.6,1.5,1.4,2,2.6
			c0.2,0.3,0.3,0.7,0.3,1C98.5,30.6,98.4,30.9,98.1,31z"/>
		<path id="XMLID_216_" class="st0" d="M114.2,28.5c-0.7,0.1-1.3,0.1-2,0.2c-0.7,0-1.4,0.1-2,0.2c-1.1,0.1-1.8,0.8-1.9,2
			c-0.1,1.6-0.2,3.3-0.4,5.2c-0.2,1.9-0.3,3.6-0.4,5.2c0,0.2-0.1,0.4-0.1,0.5s0,0.4,0,0.7c0.3,0,0.5-0.1,0.8-0.1
			c0.3,0,0.5,0,0.7-0.1c0.2,0,0.4,0,0.6-0.1c0.2,0,0.4-0.1,0.6-0.1c0.3,0,0.6,0,0.8,0.2c0.2,0.2,0.3,0.4,0.4,0.8
			c0.1,0.3,0,0.6-0.2,0.8c-0.2,0.2-0.5,0.3-0.7,0.4c-0.5,0.1-1,0.1-1.5,0.2c-0.5,0.1-1,0.1-1.5,0.2c-0.2,0.4-0.3,1-0.4,1.5
			c-0.1,0.6-0.1,1.2-0.2,1.9c0,0.7-0.1,1.3-0.1,2c0,0.7-0.1,1.3-0.2,2c-0.2,1.2-0.3,2.4-0.3,3.6c-0.1,1.2-0.2,2.5-0.3,3.8
			c1-0.1,2-0.2,2.9-0.3c0.9-0.1,1.7-0.2,2.6-0.2c0.3,0,0.5-0.1,0.7-0.1c0.2,0,0.5,0,0.7,0.1c0.3,0.1,0.6,0.2,0.8,0.5
			c0.2,0.3,0.2,0.6,0.1,1c0,0.4-0.2,0.6-0.4,0.7c-0.2,0.1-0.5,0.2-0.8,0.2c-1.3-0.1-2.6,0-3.9,0.2c-1.3,0.2-2.6,0.5-3.9,0.9
			c-0.9,0.3-1.7,0.1-2.3-0.6c-0.6-0.7-0.9-1.5-0.8-2.6c0.2-1.3,0.3-2.6,0.5-3.9s0.3-2.6,0.4-3.9c0.3-2.5,0.5-5.1,0.7-7.6
			c0.2-2.5,0.4-5,0.6-7.6c0-0.6,0.1-1.2,0.2-1.9c0.1-0.7,0.2-1.4,0.2-2.1c0-0.7,0.1-1.4,0.1-2.1c0-0.7,0-1.3-0.1-1.9
			c-0.1-0.6,0-1,0.3-1.4c0.3-0.3,0.7-0.5,1.3-0.6c0.6,0,1.2,0,1.8,0s1.2,0.1,1.7,0.1c0.6,0,1.1,0.1,1.7,0.1c0.6,0,1.2,0,1.8-0.1
			c0.3,0,0.5-0.1,0.8-0.1c0.3,0,0.5,0,0.7,0.2c0.3,0.3,0.5,0.6,0.6,1.1C114.8,28.2,114.6,28.4,114.2,28.5z"/>
		<path id="XMLID_212_" class="st0" d="M125.1,48.4c0.5,2.4,1,4.6,1.5,6.7c0.4,2.1,0.9,4.3,1.5,6.6c0.1,0.3,0.1,0.5,0,0.7
			c0,0.2-0.2,0.4-0.5,0.6c-0.3,0.2-0.6,0.2-0.9-0.1c-0.3-0.2-0.5-0.5-0.6-0.8c-0.4-1.1-0.7-2.1-1-3.1c-0.3-1-0.5-2.1-0.7-3.1
			c-0.2-1-0.4-2.1-0.6-3.1c-0.2-1-0.5-2.1-0.8-3.1c-0.8,0.2-1.7,0.2-2.8,0c-0.1,2-0.2,4-0.4,5.9c-0.2,2-0.3,4-0.5,5.9
			c-0.1,0.7-0.2,1.1-0.5,1.3s-0.7,0.3-1.1,0.3c-0.3,0-0.6,0-0.9,0c-0.3,0-0.5,0-0.8-0.1c-0.2-0.1-0.4-0.2-0.5-0.4
			c-0.1-0.2-0.2-0.5-0.2-0.8c0.1-2.7,0.3-5.4,0.5-8.2c0.2-2.8,0.4-5.5,0.7-8.3c0.2-2.8,0.5-5.5,0.7-8.3c0.2-2.8,0.4-5.5,0.5-8.3
			c0-1,0.2-1.7,0.6-2c0.4-0.3,1-0.6,1.9-0.7c1.8-0.2,3.4,0,4.6,0.7c1.2,0.7,2.2,1.7,2.9,3c0.7,1.3,1.2,2.7,1.4,4.4
			c0.2,1.7,0.2,3.4-0.1,5.1c-0.3,1.7-0.7,3.4-1.4,5C126.9,45.9,126.1,47.3,125.1,48.4z M122.1,28c-0.1,0.4-0.1,0.7-0.2,1
			c0,0.3-0.1,0.6-0.2,0.9c-0.3,2.9-0.5,5.9-0.8,8.9c-0.3,3.1-0.5,5.9-0.6,8.6c1.3,0.1,2.4-0.2,3.4-1.1c1-0.9,1.7-2,2.3-3.4
			c0.6-1.4,0.9-3,1-4.7c0.1-1.7,0.1-3.3-0.2-4.8c-0.3-1.5-0.8-2.8-1.6-3.8C124.4,28.7,123.4,28.1,122.1,28z"/>
		<path id="XMLID_205_" class="st0" d="M141.4,27.1c0-0.2,0.2-0.4,0.4-0.4c0.2-0.1,0.5,0,0.7,0.1c0.2,0.1,0.4,0.2,0.6,0.4
			c0.2,0.2,0.2,0.4,0.1,0.6c-1.1,5.1-2.2,10.3-3.3,15.6c-1,5.2-1.9,10.5-2.6,15.7c-0.2,1.1-0.4,2-0.8,2.9c-0.4,0.9-0.9,1.3-1.5,1.3
			c-0.8,0-1.4-0.1-1.8-0.2c-0.4-0.2-0.7-0.6-0.7-1.4c-0.3-2.8-0.6-5.7-0.8-8.5c-0.2-2.8-0.4-5.7-0.5-8.5c-0.2-2.8-0.3-5.7-0.5-8.5
			c-0.2-2.8-0.4-5.7-0.6-8.5c-0.1-0.5,0.1-0.8,0.4-0.9c0.3-0.1,0.8-0.2,1.2-0.4c0.5-0.1,0.9-0.2,1.4-0.1c0.4,0.1,0.7,0.4,0.7,0.9
			c0.3,2.3,0.6,4.5,0.7,6.9c0.2,2.3,0.3,4.6,0.5,6.9c0.1,2.3,0.2,4.6,0.4,6.9c0.1,2.3,0.2,4.6,0.4,6.9c0.2-0.4,0.4-1.1,0.6-2.3
			c0.3-1.2,0.5-2.6,0.9-4.2c0.3-1.6,0.7-3.4,1.1-5.3c0.4-1.9,0.7-3.8,1.1-5.8c0.3-1.9,0.7-3.8,1-5.5
			C140.9,29.8,141.2,28.3,141.4,27.1z"/>
		<path id="XMLID_202_" class="st0" d="M145,27.7c0-0.5,0.3-0.8,0.8-1c0.5-0.2,1.1-0.3,1.8-0.3c0.7,0,1.3,0,1.9,0.1
			c0.6,0.1,1.1,0.1,1.3,0.1c0.5,0,0.9,0.1,1.2,0.2c0.3,0.1,0.5,0.5,0.5,1.2c0,0.3-0.1,0.4-0.3,0.5c-0.2,0.1-0.5,0.1-0.8,0.1
			c-0.3,0-0.6,0-0.8,0.1c-0.3,0-0.4,0.2-0.4,0.4c-0.4,2.5-0.7,5.1-1.1,7.8c-0.4,2.6-0.7,5.3-1,8c-0.3,2.7-0.6,5.3-0.8,8
			c-0.2,2.7-0.3,5.3-0.3,7.8c0.2,0.1,0.5,0.1,0.7,0.2c0.3,0,0.5,0.1,0.7,0.1c0.2,0.1,0.4,0.1,0.5,0.3c0.1,0.1,0.2,0.3,0.3,0.6
			c0.1,0.8-0.2,1.1-0.9,1.1c-1.2-0.1-2.3-0.1-3.5-0.1c-1.1,0-2.3-0.1-3.5-0.1c-0.2,0-0.3-0.1-0.3-0.2c0-0.1-0.1-0.3-0.1-0.5
			s0-0.3,0.1-0.5c0.1-0.2,0.1-0.3,0.2-0.4c0.2-0.2,0.4-0.2,0.6-0.2c0.3,0,0.7-0.1,1.4-0.4c0.3-2.5,0.5-5,0.8-7.7
			c0.3-2.6,0.5-5.3,0.8-8c0.3-2.7,0.6-5.3,0.9-8c0.3-2.6,0.6-5.2,0.9-7.7c0-0.1-0.1-0.2-0.3-0.3c-0.2-0.1-0.4-0.2-0.6-0.3
			c-0.2-0.1-0.4-0.2-0.6-0.3C145.1,28,145,27.9,145,27.7z"/>
		<path id="XMLID_198_" class="st0" d="M158.3,35.3c-0.6,3.5-1.1,7-1.5,10.7c-0.4,3.7-0.7,7.3-0.7,10.8c0,0.4,0,0.8,0.1,1.3
			c0,0.4,0.2,0.8,0.3,1.2c0.7,2,1.8,2.2,3.2,0.9c0.5-0.5,1.1-1.1,1.6-1.9c0.5-0.8,1-1.5,1.3-2.1c0.1-0.2,0.2-0.3,0.5-0.3
			c0.2,0,0.4,0.1,0.6,0.2c0.2,0.1,0.3,0.3,0.4,0.5c0.1,0.2,0.1,0.4,0,0.7c-0.8,2.2-2.2,3.9-4.1,5.3c-0.3,0.2-0.7,0.4-1.2,0.4
			c-0.5,0.1-0.9,0-1.5-0.1c-0.5-0.1-1-0.2-1.5-0.4c-0.5-0.2-0.9-0.4-1.2-0.7c-0.9-0.8-1.6-1.7-2-2.7c-0.4-1-0.6-2.2-0.7-3.4
			c0-1.8,0-3.7,0.2-5.7c0.1-2,0.4-4,0.6-6s0.6-4,1-6c0.4-2,0.8-3.8,1.2-5.6c0.1-0.4,0.3-0.9,0.5-1.6c0.2-0.7,0.5-1.3,0.9-1.9
			c0.3-0.6,0.7-1.2,1.1-1.6c0.4-0.5,0.9-0.7,1.4-0.8c0.7-0.1,1.3-0.1,2,0c0.7,0.2,1.2,0.4,1.8,0.8c0.5,0.4,1,0.9,1.4,1.4
			c0.4,0.6,0.7,1.2,0.8,1.9c0.1,0.2,0.1,0.4,0,0.5c-0.1,0.2-0.2,0.3-0.3,0.4c-0.1,0.1-0.3,0.2-0.5,0.3c-0.2,0.1-0.4,0-0.5,0
			c-0.4-0.1-0.6-0.4-0.9-0.9c-0.7-1.4-1.3-2-1.8-2c-0.5,0.1-0.9,0.5-1.3,1.2c-0.4,0.8-0.6,1.7-0.8,2.7
			C158.6,33.9,158.4,34.7,158.3,35.3z"/>
		<path id="XMLID_173_" class="st0" d="M178.4,28.5c-0.7,0.1-1.3,0.1-2,0.2c-0.7,0-1.4,0.1-2,0.2c-1.1,0.1-1.8,0.8-1.9,2
			c-0.1,1.6-0.2,3.3-0.4,5.2c-0.2,1.9-0.3,3.6-0.4,5.2c0,0.2-0.1,0.4-0.1,0.5s0,0.4,0,0.7c0.3,0,0.5-0.1,0.8-0.1
			c0.3,0,0.5,0,0.7-0.1c0.2,0,0.4,0,0.6-0.1c0.2,0,0.4-0.1,0.6-0.1c0.3,0,0.6,0,0.8,0.2c0.2,0.2,0.3,0.4,0.4,0.8
			c0.1,0.3,0,0.6-0.2,0.8c-0.2,0.2-0.5,0.3-0.7,0.4c-0.5,0.1-1,0.1-1.5,0.2c-0.5,0.1-1,0.1-1.5,0.2c-0.2,0.4-0.3,1-0.4,1.5
			c-0.1,0.6-0.1,1.2-0.2,1.9s-0.1,1.3-0.1,2c0,0.7-0.1,1.3-0.2,2c-0.2,1.2-0.3,2.4-0.3,3.6c-0.1,1.2-0.2,2.5-0.3,3.8
			c1-0.1,2-0.2,2.9-0.3c0.9-0.1,1.7-0.2,2.6-0.2c0.3,0,0.5-0.1,0.7-0.1s0.5,0,0.7,0.1c0.3,0.1,0.6,0.2,0.8,0.5
			c0.2,0.3,0.2,0.6,0.1,1c0,0.4-0.2,0.6-0.4,0.7c-0.2,0.1-0.5,0.2-0.8,0.2c-1.3-0.1-2.6,0-3.9,0.2c-1.3,0.2-2.6,0.5-3.9,0.9
			c-0.9,0.3-1.7,0.1-2.3-0.6c-0.6-0.7-0.9-1.5-0.8-2.6c0.2-1.3,0.3-2.6,0.5-3.9s0.3-2.6,0.4-3.9c0.3-2.5,0.5-5.1,0.7-7.6
			c0.2-2.5,0.4-5,0.6-7.6c0-0.6,0.1-1.2,0.2-1.9c0.1-0.7,0.2-1.4,0.2-2.1c0-0.7,0.1-1.4,0.1-2.1c0-0.7,0-1.3-0.1-1.9
			c-0.1-0.6,0-1,0.3-1.4c0.3-0.3,0.7-0.5,1.3-0.6c0.6,0,1.2,0,1.8,0c0.6,0,1.2,0.1,1.7,0.1c0.6,0,1.1,0.1,1.7,0.1
			c0.6,0,1.2,0,1.8-0.1c0.3,0,0.5-0.1,0.8-0.1c0.3,0,0.5,0,0.7,0.2c0.3,0.3,0.5,0.6,0.6,1.1C179,28.2,178.8,28.4,178.4,28.5z"/>
	</g>
	<g id="XMLID_10_">
		<g id="XMLID_46_">
			<g id="XMLID_49_">
				<path id="XMLID_50_" class="st0" d="M76.4,34.3c5.9-13.4,1.6-23.2-2-28.3c-1.3,2.5-2.9,5.2-4.3,6.7
					c-22.3,24.4-3.7,44.2-3.7,44.2S58.2,42.1,71.1,23c0.5-0.8,0.9-1.2,0.9-1.2c-0.3,0.4-0.6,0.8-0.9,1.2
					c-2.8,4.3-10.8,19.4-1.8,37.2C68.4,53.4,71.2,46,76.4,34.3z"/>
			</g>
			<g id="XMLID_47_">
				<path id="XMLID_48_" class="st1" d="M104.5,66.2c0,0-15.8,9-26.7,1.9c-10.9-7.1-3.8-22.9-1.4-27.1c4.1-7,12-22.8,0.9-41
					c0,0-1.2,2.8-2.8,5.9c3.6,5.1,7.9,14.9,2,28.3c-5.2,11.7-8,19.2-7.1,25.9c0.4,0.7,0.7,1.4,1.2,2.2
					C82.9,83.8,104.5,66.2,104.5,66.2z"/>
			</g>
		</g>
	</g>
</g>
</svg>
